<svg width="114" height="34" viewBox="0 0 114 34" fill="none" xmlns="http://www.w3.org/2000/svg">
<path d="M4.12 5.96V9.56C5.32 9.52 6.68 9.48 8.04 9.48C10 9.48 23.2 9.48 25.2 9.48C26.52 9.48 28.04 9.52 29.12 9.56V5.96C28.04 6.08 26.64 6.16 25.2 6.16C23.16 6.16 10.56 6.16 8.04 6.16C6.72 6.16 5.4 6.08 4.12 5.96ZM0.68 25.8V29.64C2 29.52 3.4 29.44 4.88 29.44C7.16 29.44 26.52 29.44 28.84 29.44C29.88 29.44 31.28 29.52 32.48 29.64V25.8C31.32 25.92 30 26 28.84 26C26.52 26 7.16 26 4.88 26C3.4 26 2.04 25.88 0.68 25.8Z" fill="#52FF50"/>
<path d="M46.24 2.24V5.56C47.32 5.48 48.6 5.44 49.8 5.44C52 5.44 63.24 5.44 65.48 5.44C66.84 5.44 68.24 5.48 69.16 5.56V2.24C68.2 2.36 66.8 2.44 65.56 2.44C63.2 2.44 51.96 2.44 49.8 2.44C48.52 2.44 47.28 2.36 46.24 2.24ZM72.12 12.76L69.84 11.36C69.4 11.56 68.52 11.68 67.6 11.68C65.56 11.68 48.52 11.68 46.56 11.68C45.44 11.68 44.08 11.56 42.64 11.44V14.8C44.08 14.68 45.6 14.64 46.56 14.64C48.96 14.64 65.8 14.64 67.76 14.64C67.04 17.56 65.44 20.96 63.04 23.48C59.6 27.08 54.6 29.68 48.96 30.84L51.44 33.68C56.52 32.24 61.56 29.92 65.72 25.32C68.72 22.04 70.52 17.88 71.56 13.96C71.64 13.64 71.92 13.16 72.12 12.76ZM104.859 2.16L102.619 3.12C103.939 4.92 105.299 7.32 106.299 9.44L108.579 8.4C107.659 6.48 105.859 3.64 104.859 2.16ZM110.059 0.239999L107.859 1.24C109.179 3 110.579 5.32 111.619 7.4L113.899 6.36C112.939 4.52 111.139 1.64 110.059 0.239999ZM87.7388 1.56L85.9388 4.28C88.2988 5.6 92.6588 8.52 94.5388 9.96L96.4588 7.24C94.6988 5.96 90.0988 2.88 87.7388 1.56ZM81.7388 30.16L83.6188 33.44C87.2988 32.68 92.8188 30.8 96.8588 28.44C103.259 24.72 108.779 19.52 112.259 14.16L110.299 10.88C107.059 16.52 101.819 21.72 95.1788 25.52C91.0988 27.84 86.1388 29.4 81.7388 30.16ZM81.7388 10.56L79.9388 13.32C82.3788 14.56 86.6988 17.36 88.6588 18.76L90.4988 15.96C88.7788 14.72 84.0988 11.84 81.7388 10.56Z" fill="white"/>
</svg>
